<svg width="129" height="92" viewBox="0 0 129 92" fill="none" xmlns="http://www.w3.org/2000/svg">
<g filter="url(#filter0_d_40_122)">
<rect x="27" y="24" width="75" height="38" rx="19" fill="#00FF88" shape-rendering="crispEdges"/>
<path d="M55.049 36.9091V50H52.9396L46.7713 41.0831H46.6626V50H44.2912V36.9091H46.4134L52.5753 45.8324H52.6903V36.9091H55.049ZM57.633 50V36.9091H66.1472V38.897H60.0044V42.451H65.7061V44.4389H60.0044V48.0121H66.1983V50H57.633ZM71.3216 50L67.627 36.9091H70.1774L72.536 46.5291H72.6575L75.176 36.9091H77.4963L80.0211 46.5355H80.1362L82.4949 36.9091H85.0453L81.3507 50H79.0112L76.3904 40.8146H76.2882L73.661 50H71.3216Z" fill="#1A0B2E"/>
</g>
<defs>
<filter id="filter0_d_40_122" x="0" y="0" width="129" height="92" filterUnits="userSpaceOnUse" color-interpolation-filters="sRGB">
<feFlood flood-opacity="0" result="BackgroundImageFix"/>
<feColorMatrix in="SourceAlpha" type="matrix" values="0 0 0 0 0 0 0 0 0 0 0 0 0 0 0 0 0 0 127 0" result="hardAlpha"/>
<feOffset dy="3"/>
<feGaussianBlur stdDeviation="13.5"/>
<feComposite in2="hardAlpha" operator="out"/>
<feColorMatrix type="matrix" values="0 0 0 0 0 0 0 0 0 1 0 0 0 0 0.533333 0 0 0 0.5 0"/>
<feBlend mode="normal" in2="BackgroundImageFix" result="effect1_dropShadow_40_122"/>
<feBlend mode="normal" in="SourceGraphic" in2="effect1_dropShadow_40_122" result="shape"/>
</filter>
</defs>
</svg>
